# xmcd
#
# Track frame offsets:
#	150
#	8682
#	22361
#	32058
#	42481
#	54266
#	65704
#	81396
#	92284
#	103862
#	117246
#	131270
#	146841
#	159075
#	172558
#	183103
#	195852
#	208592
#	216991
#	229789
#	243624
#	256763
#	266933
#	278741
#	289907
#	301981
#	315702
#	326317
#
# Disc length: 4501 seconds
# Revision: 1
# Processed by: cddbd v1.5.2PL0 Copyright (c) Steve Scherf et al.
# Submitted via: dBpowerAMP V12.0
#
DISCID=8711931c
DTITLE=Various Artist - Jook Joint Blues
DYEAR=1956
DGENRE=Blues
TTITLE0=Lazy Lester - Lester's Stomp
TTITLE1=Mercy Dee - Dark Muddy Bottom
TTITLE2=Eddie Hope and The Mannish Boys - Lost Child
TTITLE3=Little Sam Davis - 1958 Blues
TTITLE4=Good Rockin' Sam - Now Listen, Baby
TTITLE5=Lonesome Sundown - Lost Without Love
TTITLE6=R. Green and Turner - Alla Blues
TTITLE7=Arthur Gunter - She's Mine, All Mine
TTITLE8=Sonny Boy Holmes - T.N.T. Woman
TTITLE9=Lightnin' Slim - Lightnin' Blues
TTITLE10=K.C. Douglas - K.C. Boogie
TTITLE11=John Lee - Baby Blues
TTITLE12=Johnny Lewis - She's Taking All My Money
TTITLE13=Clifford Gibson - Let Me Be Your Handy Man
TTITLE14=Ole Sonny Boy - You Better Change
TTITLE15=Schoolboy Cleve - Strange Letter Blues
TTITLE16=Jerry McCain - Things Ain't Right
TTITLE17=Lazy Slim Jim - Wine Head Baby
TTITLE18=Frankie Lee Sims - Don't Take It Out On Me
TTITLE19=Lafayette Thomas - Deep South Guitar Blues
TTITLE20=Tommy Lee Thompson - Packin' Up My blues
TTITLE21=Little Milton Anderson - Blow It Down
TTITLE22=Wright Holmes - Good Road Blues
TTITLE23=Jerry Perkins - Katherine Blues
TTITLE24=Earl Hooker - On The Hook
TTITLE25=Lightnin' Slim - I Can't Be Successful
TTITLE26=Country Jim - Philippine Blues
TTITLE27=Coy ''Hot Shot'' Love - Harpin' On It
EXTD=
EXTT0=
EXTT1=
EXTT2=
EXTT3=
EXTT4=
EXTT5=
EXTT6=
EXTT7=
EXTT8=
EXTT9=
EXTT10=
EXTT11=
EXTT12=
EXTT13=
EXTT14=
EXTT15=
EXTT16=
EXTT17=
EXTT18=
EXTT19=
EXTT20=
EXTT21=
EXTT22=
EXTT23=
EXTT24=
EXTT25=
EXTT26=
EXTT27=
PLAYORDER=
